PathFileType	4	(X/Y/Z)	D:\Share\Shared_Data\Ergonomics\Sit To Stand Pertubation\S1\Unperturbed_NoHarness.trc
DataRate	CameraRate	NumFrames	NumMarkers	Units	OrigDataRate	OrigDataStartFrame	OrigNumFrames	
100	100	8	18	m	100	2081	241
Frame#	Time	R_Thigh_Med			R_ASIS			R_Pelvis			V_Sacral			L_Pelvis			L_ASIS			Clavical			R_Acromium			L_Acromium			Sternum			Torso			R_Thigh_Lat			R_Thigh			R_Shank_Med			R_Shank_Lat			R_Shank			R_Heel			R_Toe			
		X1	Y1	Z1	X2	Y2	Z2	X3	Y3	Z3	X4	Y4	Z4	X5	Y5	Z5	X6	Y6	Z6	X7	Y7	Z7	X8	Y8	Z8	X9	Y9	Z9	X10	Y10	Z10	X11	Y11	Z11	X12	Y12	Z12	X13	Y13	Z13	X14	Y14	Z14	X15	Y15	Z15	X16	Y16	Z16	X17	Y17	Z17	X18	Y18	Z18	

2081	20.8	0.33122473	0.42056177	0.038477062	0.45480612	0.89681897	0.083995621	0.37465768	0.90795148	0.12711971	0.28381186	0.90156683	-0.025164618	0.38284402	0.90735986	-0.17553815	0.4697623	0.90560284	-0.11447791	0.4413154	1.2530487	-0.021715996	0.37596539	1.3214907	0.1280878	0.32549698	1.2763459	-0.20812816	0.42725705	1.264895	0.081633194	0.4352041	1.2586169	-0.081086258	0.35253699	0.44004086	0.15560982	0.44441556	0.60090729	0.095125328	0.31397314	0.10182714	0.071600647	0.29028464	0.10025898	0.15184311	0.31359879	0.31080844	0.17233534	0.24427644	0.032731533	0.092184853	0.44932535	0.044636837	0.12217028
2082	20.81	0.33126566	0.42053085	0.038437077	0.45525073	0.89675299	0.083995979	0.37511786	0.90785828	0.12698158	0.28462097	0.90133423	-0.025381849	0.38375696	0.90715588	-0.17562334	0.47060083	0.90558887	-0.11445263	0.4407868	1.2529568	-0.021775145	0.37511365	1.3212108	0.12800452	0.32496127	1.2758341	-0.20828867	0.42662137	1.264756	0.081562248	0.43472256	1.2584819	-0.081178383	0.35268893	0.44000177	0.15565294	0.44483246	0.60073932	0.095125336	0.31395615	0.10179662	0.071592995	0.29029202	0.10024972	0.15185361	0.31367963	0.31078693	0.1723371	0.24427687	0.032721943	0.092184731	0.44933014	0.044626415	0.12217168
2083	20.82	0.33129437	0.42050845	0.038407742	0.45572177	0.89668658	0.083985123	0.37561774	0.90775195	0.12686189	0.28541083	0.90112695	-0.025569937	0.38461987	0.90695862	-0.17570845	0.47140781	0.90554907	-0.11445112	0.44027237	1.252863	-0.021826094	0.37425299	1.3209298	0.12792157	0.3244726	1.2753096	-0.20848079	0.42598578	1.2646196	0.081495697	0.43425967	1.2583461	-0.081262573	0.35283328	0.43996573	0.15569408	0.4452403	0.60057202	0.095122681	0.31394	0.10176891	0.071587891	0.29029449	0.10023969	0.15186432	0.31375198	0.3107673	0.17233948	0.24427739	0.032713711	0.092184341	0.44933423	0.044614899	0.12217404
2084	20.83	0.33130438	0.42049719	0.038398041	0.45622415	0.89661792	0.083959793	0.37616754	0.9076261	0.12676241	0.28618036	0.90094464	-0.025727968	0.38542657	0.90676678	-0.17579314	0.47217993	0.90547656	-0.11447732	0.43977374	1.2527679	-0.021871023	0.37339081	1.3206482	0.12783785	0.32402975	1.2747793	-0.20868381	0.42535532	1.2644856	0.081431335	0.43381726	1.2582094	-0.081341942	0.35295499	0.43993896	0.15573886	0.44563174	0.60040387	0.095121941	0.31392465	0.10174587	0.071587601	0.29028806	0.10022898	0.15187881	0.31380435	0.31075003	0.17234666	0.24427721	0.032706203	0.092183754	0.44933517	0.044606606	0.1221767
2085	20.84	0.33129562	0.42049799	0.038409748	0.45675827	0.89654413	0.083919479	0.37676437	0.90747845	0.12668114	0.28692706	0.900784	-0.025857687	0.38617416	0.90658014	-0.17587592	0.47291544	0.90537036	-0.11453165	0.43929156	1.2526711	-0.021912537	0.37253601	1.3203673	0.12775208	0.32363031	1.2742524	-0.20888799	0.42473535	1.264353	0.081367111	0.4333952	1.2580714	-0.081419563	0.353047	0.43992374	0.15579019	0.44600262	0.60023456	0.0951259	0.3139108	0.10172867	0.071593163	0.29027194	0.1002179	0.15189972	0.31383197	0.31073547	0.17236084	0.24427568	0.032698711	0.092183487	0.44933057	0.044607071	0.122179
2086	20.85	0.33127692	0.42050812	0.03843824	0.45731778	0.89646466	0.083865944	0.37739359	0.90731226	0.12661285	0.28764548	0.90064038	-0.025961145	0.38686353	0.90639972	-0.17595462	0.47361322	0.90523517	-0.11461072	0.43882608	1.252573	-0.021953465	0.37169867	1.3200894	0.12766294	0.32327127	1.2737418	-0.2090919	0.42413089	1.2642214	0.081301216	0.43299197	1.2579323	-0.081498055	0.3531102	0.43991867	0.15584769	0.44635211	0.60006555	0.095135048	0.31389972	0.10171745	0.071604187	0.29024838	0.10020708	0.1519281	0.3138371	0.31072345	0.17238196	0.24427263	0.032690685	0.092184219	0.44931857	0.044620998	0.12218066
2087	20.86	0.33126608	0.42052094	0.038474255	0.4578876	0.89638403	0.083802147	0.37803021	0.90713641	0.12655	0.28832806	0.90050696	-0.026041206	0.38749921	0.90622687	-0.17602704	0.47427313	0.90508105	-0.11470781	0.43837744	1.2524744	-0.021996536	0.37088806	1.319816	0.12756927	0.32295038	1.2732626	-0.20929799	0.42354593	1.2640916	0.081232033	0.43260605	1.2577926	-0.081579483	0.35315155	0.43991943	0.15590784	0.44668115	0.59989941	0.095147667	0.31389273	0.10171136	0.071618958	0.29022156	0.1001972	0.15196312	0.31382742	0.31071381	0.17240811	0.2442684	0.032681705	0.092186134	0.44929947	0.044649239	0.12218204
2088	20.87	0.33128168	0.42052966	0.038507317	0.45844705	0.89630957	0.083731667	0.37864328	0.90696387	0.12648451	0.28896832	0.90037653	-0.026103617	0.3880892	0.90606317	-0.17609151	0.47489639	0.90492206	-0.11481407	0.4379454	1.2523762	-0.022044252	0.37011118	1.3195498	0.12747036	0.3226655	1.2728258	-0.20950806	0.42298309	1.2639652	0.081157974	0.43223605	1.2576542	-0.081665253	0.35318143	0.43992065	0.15596527	0.44699088	0.59974017	0.095160324	0.31389072	0.10170904	0.071635124	0.29019571	0.10018874	0.15200246	0.31381281	0.31070636	0.17243571	0.24426357	0.032671772	0.092188751	0.44927521	0.044688297	0.12218386
